<svg width="140" height="140" viewBox="0 0 140 140" fill="none" xmlns="http://www.w3.org/2000/svg">
<g filter="url(#filter0_d_1892_2730)">
<circle cx="19.7518" cy="19.7518" r="19.7518" transform="matrix(-1 0 0 1 89.5039 46)" fill="white"/>
<path d="M71.5407 69.6782L71.5396 69.677L68.5671 66.4273L67.9487 65.7513L68.5682 65.0762L71.5505 61.8265C71.5565 61.82 71.5742 61.7933 71.5742 61.7437C71.5742 61.7366 71.5739 61.7299 71.5732 61.7237L67.9521 65.6695C67.9484 65.6735 67.9442 65.6794 67.9402 65.6901C67.936 65.7013 67.9308 65.7215 67.9308 65.7524C67.9308 65.7872 67.943 65.8217 67.9655 65.8499L71.5634 69.7808C71.5641 69.7747 71.5644 69.7681 71.5644 69.7611C71.5644 69.7114 71.5467 69.6848 71.5407 69.6782Z" fill="#555B64" stroke="#444950" stroke-width="2"/>
</g>
<defs>
<filter id="filter0_d_1892_2730" x="0" y="0" width="139.504" height="139.504" filterUnits="userSpaceOnUse" color-interpolation-filters="sRGB">
<feFlood flood-opacity="0" result="BackgroundImageFix"/>
<feColorMatrix in="SourceAlpha" type="matrix" values="0 0 0 0 0 0 0 0 0 0 0 0 0 0 0 0 0 0 127 0" result="hardAlpha"/>
<feOffset dy="4"/>
<feGaussianBlur stdDeviation="25"/>
<feComposite in2="hardAlpha" operator="out"/>
<feColorMatrix type="matrix" values="0 0 0 0 0 0 0 0 0 0 0 0 0 0 0 0 0 0 0.25 0"/>
<feBlend mode="normal" in2="BackgroundImageFix" result="effect1_dropShadow_1892_2730"/>
<feBlend mode="normal" in="SourceGraphic" in2="effect1_dropShadow_1892_2730" result="shape"/>
</filter>
</defs>
</svg>
